<?xml version="1.0" encoding="UTF-8" standalone="no"?>
<!-- Created with Inkscape (http://www.inkscape.org/) -->

<svg
   width="1024"
   height="1024"
   viewBox="0 0 1024 1024"
   version="1.1"
   id="svg1"
   xml:space="preserve"
   xmlns:xlink="http://www.w3.org/1999/xlink"
   xmlns="http://www.w3.org/2000/svg"
   xmlns:svg="http://www.w3.org/2000/svg"><defs
     id="defs1"><linearGradient
       xlink:href="#linearGradient3"
       id="linearGradient4"
       x1="415.06671"
       y1="501.62088"
       x2="981.60321"
       y2="501.62088"
       gradientUnits="userSpaceOnUse"
       gradientTransform="matrix(1.7797292,0,0,1.7797292,-730.84722,-380.74926)" /><linearGradient
       id="linearGradient3"><stop
         style="stop-color:#a303fb;stop-opacity:1;"
         offset="0"
         id="stop3" /><stop
         style="stop-color:#0a0037;stop-opacity:1;"
         offset="1"
         id="stop4" /></linearGradient></defs><g
     id="layer1"><circle
       style="fill:url(#linearGradient4);stroke-width:30.0045"
       id="circle3"
       cx="512"
       cy="512"
       r="504.14078" /><g
       id="g1"
       transform="matrix(1.3858916,0,0,1.3858916,157.22141,157.22214)"
       style="fill:#ffffff;fill-opacity:1"><path
         style="fill:#ffffff;fill-opacity:1"
         d="m 511.528,309.682 c -2.484,-42.436 -15.155,-98.231 -37.64,-165.838 -0.484,-1.421 -1.25,-2.726 -2.25,-3.835 L 434.531,99.463 c -2.016,-2.211 -4.875,-3.469 -7.859,-3.469 h -42.67 c -1.656,0 -3.281,0.391 -4.766,1.125 l -19.078,9.523 H 151.844 l -19.093,-9.523 c -1.469,-0.734 -3.109,-1.125 -4.765,-1.125 H 85.33 c -3,0 -5.859,1.258 -7.875,3.469 l -37.092,40.546 c -1.016,1.109 -1.781,2.414 -2.25,3.835 -22.499,67.607 -35.17,123.403 -37.655,165.838 -2.156,36.75 3.312,64.498 16.265,82.436 11.265,15.623 28.093,23.873 48.686,23.873 14.968,0 28.546,-6.812 40.374,-20.279 8.578,-9.781 16.265,-23.156 22.828,-39.797 7.187,-18.17 11.468,-36.17 13.593,-46.576 h 227.579 c 2.125,10.406 6.406,28.406 13.594,46.576 6.562,16.641 14.249,30.016 22.826,39.797 11.828,13.467 25.422,20.279 40.375,20.279 20.592,0 37.436,-8.25 48.701,-23.873 12.937,-17.937 18.405,-45.686 16.249,-82.436 z"
         id="path1" /><path
         style="fill:#ffffff;fill-opacity:1"
         d="m 263.529,259.122 c 4.171,4.164 4.171,10.922 0,15.094 -4.156,4.156 -10.923,4.156 -15.079,0 -4.172,-4.172 -4.172,-10.93 0,-15.094 4.156,-4.164 10.923,-4.164 15.079,0 z"
         id="path2" /><g
         id="g6"
         style="fill:#ffffff;fill-opacity:1">
	<path
   style="fill:#ffffff;fill-opacity:1"
   d="m 412.875,178.202 c -4.172,4.172 -10.921,4.172 -15.077,0 -4.172,-4.164 -4.172,-10.914 0,-15.085 4.156,-4.164 10.905,-4.164 15.077,0 4.172,4.172 4.172,10.921 0,15.085 z"
   id="path3" />
	<path
   style="fill:#ffffff;fill-opacity:1"
   d="m 412.875,220.873 c -4.172,4.164 -10.921,4.164 -15.077,0 -4.172,-4.164 -4.172,-10.922 0,-15.086 4.156,-4.164 10.905,-4.164 15.077,0 4.172,4.164 4.172,10.922 0,15.086 z"
   id="path4" />
	<path
   style="fill:#ffffff;fill-opacity:1"
   d="m 434.203,199.538 c -4.156,4.164 -10.906,4.164 -15.078,0 -4.172,-4.164 -4.172,-10.914 0,-15.085 4.172,-4.164 10.922,-4.164 15.078,0 4.172,4.164 4.172,10.921 0,15.085 z"
   id="path5" />
	<path
   style="fill:#ffffff;fill-opacity:1"
   d="m 391.548,199.538 c -4.172,4.164 -10.921,4.164 -15.093,0 -4.156,-4.164 -4.156,-10.914 0,-15.085 4.172,-4.164 10.921,-4.164 15.093,0 4.156,4.164 4.156,10.921 0,15.085 z"
   id="path6" />
</g><path
         style="fill:#ffffff;fill-opacity:1"
         d="m 223.998,277.341 c 0,23.561 -19.109,42.654 -42.67,42.654 -23.561,0 -42.67,-19.094 -42.67,-42.654 0,-23.578 19.109,-42.679 42.67,-42.679 23.561,0 42.67,19.101 42.67,42.679 z"
         id="path7" /><path
         style="fill:#ffffff;fill-opacity:1"
         d="m 181.327,223.998 c -29.405,0 -53.342,23.921 -53.342,53.342 0,29.404 23.937,53.326 53.342,53.326 29.405,0 53.327,-23.922 53.327,-53.326 0,-29.421 -23.921,-53.342 -53.327,-53.342 z m 0,85.341 c -17.64,0 -31.999,-14.375 -31.999,-31.998 0,-17.656 14.359,-32.007 31.999,-32.007 17.64,0 31.999,14.351 31.999,32.007 0,17.623 -14.358,31.998 -31.999,31.998 z"
         id="path8" /><path
         style="fill:#ffffff;fill-opacity:1"
         d="m 373.33,277.341 c 0,23.561 -19.094,42.654 -42.671,42.654 -23.562,0 -42.655,-19.094 -42.655,-42.654 0,-23.578 19.094,-42.679 42.655,-42.679 23.577,-0.001 42.671,19.101 42.671,42.679 z"
         id="path9" /><path
         style="fill:#ffffff;fill-opacity:1"
         d="m 330.659,223.998 c -29.405,0 -53.326,23.921 -53.326,53.342 0,29.404 23.921,53.326 53.326,53.326 29.421,0 53.343,-23.922 53.343,-53.326 0,-29.421 -23.922,-53.342 -53.343,-53.342 z m 0,85.341 c -17.64,0 -31.999,-14.375 -31.999,-31.998 0,-17.656 14.359,-32.007 31.999,-32.007 17.655,0 32.015,14.351 32.015,32.007 0,17.623 -14.36,31.998 -32.015,31.998 z"
         id="path10" /><path
         style="fill:#ffffff;fill-opacity:1"
         d="m 106.658,223.998 c -5.891,0 -10.671,-4.773 -10.671,-10.672 v -42.663 c 0,-5.89 4.781,-10.664 10.671,-10.664 5.89,0 10.671,4.773 10.671,10.664 v 42.663 c 0,5.899 -4.78,10.672 -10.671,10.672 z"
         id="path11" /><path
         style="fill:#ffffff;fill-opacity:1"
         d="M 127.986,202.663 H 85.33 c -5.89,0 -10.671,-4.773 -10.671,-10.664 0,-5.891 4.781,-10.672 10.671,-10.672 h 42.655 c 5.89,0 10.671,4.781 10.671,10.672 0.001,5.89 -4.78,10.664 -10.67,10.664 z"
         id="path12" /><rect
         x="181.323"
         y="106.643"
         style="fill:#ffffff;fill-opacity:1"
         width="149.33"
         height="42.686001"
         id="rect12" /><g
         id="g16"
         style="fill:#ffffff;fill-opacity:1">
	<path
   style="fill:#ffffff;fill-opacity:1"
   d="m 495.279,392.118 c 8.922,-12.359 14.28,-29.375 16.062,-50.779 -0.031,0 -59.732,43.545 -117.262,36.279 0,0 0.047,0.406 0.172,1.109 3.75,6.5 7.749,12.172 11.952,16.984 11.828,13.467 25.422,20.279 40.375,20.279 20.592,10e-4 37.436,-8.249 48.701,-23.872 z"
   id="path13" />
	<path
   style="fill:#ffffff;fill-opacity:1"
   d="M 16.723,392.118 C 7.802,379.759 2.427,362.743 0.661,341.339 c 0,0 59.717,43.545 117.262,36.279 0,0 -0.062,0.406 -0.172,1.109 -3.766,6.5 -7.75,12.172 -11.968,16.984 -11.828,13.467 -25.405,20.279 -40.374,20.279 -20.593,10e-4 -37.42,-8.249 -48.686,-23.872 z"
   id="path14" />
	<path
   style="fill:#ffffff;fill-opacity:1"
   d="m 70.878,106.642 h 80.966 l -19.093,-9.523 c -1.469,-0.734 -3.109,-1.125 -4.765,-1.125 H 85.33 c -3,0 -5.859,1.258 -7.875,3.469 z"
   id="path15" />
	<path
   style="fill:#ffffff;fill-opacity:1"
   d="m 441.125,106.642 h -80.951 l 19.078,-9.523 c 1.484,-0.734 3.109,-1.125 4.766,-1.125 h 42.67 c 2.984,0 5.844,1.258 7.859,3.469 z"
   id="path16" />
</g></g></g></svg>
