<?xml version="1.0" encoding="UTF-8" standalone="no"?>
<!-- Created with Inkscape (http://www.inkscape.org/) -->

<svg
   width="1000"
   height="1000"
   viewBox="0 0 1000 1000"
   version="1.1"
   id="svg1"
   xml:space="preserve"
   xmlns="http://www.w3.org/2000/svg"
   xmlns:svg="http://www.w3.org/2000/svg"><defs
     id="defs1" /><g
     id="layer1"><g
       id="g1"
       transform="matrix(1.2434636,0,0,1.2434636,28.727369,-31.305607)"><path
         id="Path_182"
         data-name="Path 182"
         d="M 778.95084,560.51648 C 777.18273,522.05414 747.20733,366.02415 728.08815,295.71222 a 141.83795,141.83795 0 0 0 -7.90936,-25.61405 2.9704283,2.9704283 0 0 1 -0.11787,-0.33005 l -0.0707,-0.0943 a 142.85167,142.85167 0 0 0 -236.597,-41.73923 922.86022,922.86022 0 0 0 -112.74661,-7.87399 902.31475,902.31475 0 0 0 -97.83554,6.03515 142.79273,142.79273 0 0 0 -234.840649,43.61344 v 0.0707 c 0,0.0943 -0.0943,0.23575 -0.141449,0.35362 a 144.2308,144.2308 0 0 0 -7.921142,25.61405 c -19.107398,70.31193 -49.059217,226.31835 -50.827329,264.80426 -0.07072,2.02743 0,3.98414 0,5.89371 a 108.37348,108.37348 0 0 0 197.321309,59.53822 l 0.11788,-0.14145 a 873.90709,873.90709 0 0 0 53.33804,-90.76308 65.809132,65.809132 0 0 0 115.82313,-42.84725 64.830777,64.830777 0 0 0 -1.66202,-14.4278 h 26.61598 43.28338 a 65.797345,65.797345 0 0 0 114.1729,57.25147 883.37238,883.37238 0 0 0 53.33804,90.76309 l 0.14145,0.1886 a 108.38527,108.38527 0 0 0 197.32131,-59.5618 c 0.0589,-1.94493 0.0589,-3.90164 0.0589,-5.92907 z"
         fill="#dce2e9"
         style="stroke-width:11.7874" /><g
         id="Group_67"
         data-name="Group 67"
         opacity="0.5"
         style="isolation:isolate;mix-blend-mode:screen"
         transform="matrix(11.787414,0,0,11.787414,-7405.0507,-2511.2011)"><g
           id="Group_66"
           data-name="Group 66"><path
             id="Path_183"
             data-name="Path 183"
             d="m 642.175,229.64 a 12.364,12.364 0 0 1 8.961,3.828 77.914,77.914 0 0 1 8.5,-0.525 79.278,79.278 0 0 1 9.8,0.685 12.408,12.408 0 0 1 19.686,1.924 12.112,12.112 0 0 0 -19.9,-3.174 78.292,78.292 0 0 0 -9.565,-0.668 76.549,76.549 0 0 0 -8.3,0.512 12.106,12.106 0 0 0 -19.753,3.33 12.4,12.4 0 0 1 10.571,-5.912 z"
             fill="#ffffff" /></g></g><path
         id="Path_184"
         data-name="Path 184"
         d="M 283.87945,324.85071 A 114.19647,114.19647 0 1 1 169.65941,210.6896 114.20825,114.20825 0 0 1 283.87945,324.85071 Z"
         fill="#ffffff"
         opacity="0.5"
         style="isolation:isolate;mix-blend-mode:screen;stroke-width:11.7874" /><path
         id="Path_185"
         data-name="Path 185"
         d="M 169.65941,458.36675 A 133.00918,133.00918 0 0 1 65.576545,408.41169 L 9.8692264,639.83399 a 107.9845,107.9845 0 0 0 77.5140346,32.66292 c 0.919418,0 1.815262,0 2.711105,0 L 192.45627,456.48076 a 134.37652,134.37652 0 0 1 -22.79686,1.88599 z"
         fill="#8c93a1"
         opacity="0.2"
         style="stroke-width:11.7874" /><path
         id="Path_186"
         data-name="Path 186"
         d="M 474.02223,324.85071 A 114.19647,114.19647 0 1 0 588.20691,210.66603 114.22004,114.22004 0 0 0 474.02223,324.85071 Z"
         fill="#ebeff2"
         style="stroke-width:11.7874" /><path
         id="Path_187"
         data-name="Path 187"
         d="m 588.20691,458.36675 a 133.25672,133.25672 0 0 0 104.10644,-49.93149 l 55.69553,231.39873 a 107.9845,107.9845 0 0 1 -77.51404,32.66292 c -0.91941,0 -1.82705,-0.0707 -2.72289,-0.0707 L 565.43362,456.41004 a 134.55333,134.55333 0 0 0 22.77329,1.95671 z"
         fill="#8c93a1"
         opacity="0.2"
         style="stroke-width:11.7874" /><g
         id="Group_70"
         data-name="Group 70"
         transform="matrix(11.787414,0,0,11.787414,-7405.0507,-2511.2011)"><g
           id="Group_69"
           data-name="Group 69"><g
             id="Group_68"
             data-name="Group 68"><path
               id="Path_188"
               data-name="Path 188"
               d="M 656,254.8 A 4.049,4.049 0 1 1 651.951,250.753 4.048,4.048 0 0 1 656,254.8 Z"
               fill="#f7971d" /><path
               id="Path_189"
               data-name="Path 189"
               d="m 647.911,255.068 a 8.264,8.264 0 0 1 0.041,-1.569 c 0.076,-0.369 0.76,0.639 0.774,0.7 0.014,0.061 -0.75,1.636 -0.815,0.869 z"
               fill="#f7971d" /><path
               id="Path_190"
               data-name="Path 190"
               d="m 655.993,255.068 a 8.189,8.189 0 0 0 -0.041,-1.569 c -0.076,-0.369 -0.758,0.639 -0.773,0.7 -0.015,0.061 0.75,1.636 0.814,0.869 z"
               fill="#f7971d" /></g><path
             id="Path_191"
             data-name="Path 191"
             d="m 656,254.132 a 4.049,4.049 0 1 1 -4.049,-4.049 4.046,4.046 0 0 1 4.049,4.049 z"
             fill="#ffc52f" /></g><path
           id="Path_192"
           data-name="Path 192"
           d="m 654.942,254.132 a 2.991,2.991 0 1 1 -2.99,-2.988 2.991,2.991 0 0 1 2.99,2.988 z"
           fill="#faac1e" /></g><path
         id="Path_193"
         data-name="Path 193"
         d="m 335.23721,379.42644 a 24.117049,24.117049 0 1 1 -24.12883,24.10526 24.081687,24.081687 0 0 1 24.12883,-24.10526 z"
         fill="#8c93a1"
         fill-rule="evenodd"
         style="stroke-width:11.7874" /><path
         id="Path_194"
         data-name="Path 194"
         d="m 422.65268,379.42644 a 24.128836,24.128836 0 1 1 -24.10526,24.10526 24.152411,24.152411 0 0 1 24.10526,-24.10526 z"
         fill="#8c93a1"
         fill-rule="evenodd"
         style="stroke-width:11.7874" /><g
         id="Group_71"
         data-name="Group 71"
         transform="matrix(11.787414,0,0,11.787414,-7405.0507,-2511.2011)"><path
           id="Path_195"
           data-name="Path 195"
           d="m 645.1,245.873 a 1.332,1.332 0 0 1 -1.33,1.33 h -2.47 a 1.327,1.327 0 0 1 -1.328,-1.329 v -10.46 a 1.333,1.333 0 0 1 1.33,-1.331 h 2.465 a 1.328,1.328 0 0 1 1.33,1.331 z"
           fill="#727a86" /><path
           id="Path_196"
           data-name="Path 196"
           d="m 637.306,243.207 a 1.33,1.33 0 0 1 -1.33,-1.33 v -2.467 a 1.326,1.326 0 0 1 1.328,-1.33 h 10.459 a 1.33,1.33 0 0 1 1.33,1.33 v 2.468 a 1.33,1.33 0 0 1 -1.33,1.329 z"
           fill="#727a86" /></g><path
         id="Path_197"
         data-name="Path 197"
         d="M 230.42353,287.31958 H 199.01007 V 255.88255 A 15.689048,15.689048 0 0 0 183.33281,240.20529 H 154.2179 a 15.653686,15.653686 0 0 0 -15.65369,15.67726 v 31.43703 h -31.44882 a 15.689048,15.689048 0 0 0 -15.653684,15.70084 v 29.06776 a 15.641898,15.641898 0 0 0 15.653684,15.66547 h 31.44882 v 31.43704 a 15.665473,15.665473 0 0 0 15.65369,15.66547 h 29.07955 a 15.653686,15.653686 0 0 0 15.67726,-15.66547 v -31.43704 h 31.42524 a 15.641898,15.641898 0 0 0 15.67727,-15.66547 v -29.06776 a 15.677261,15.677261 0 0 0 -15.65369,-15.70084 z"
         fill="#5a6271"
         style="stroke-width:11.7874" /><g
         id="Group_74"
         data-name="Group 74"
         transform="matrix(11.787414,0,0,11.787414,-7405.0507,-2511.2011)"><g
           id="Group_73"
           data-name="Group 73"><g
             id="Group_72"
             data-name="Group 72"><path
               id="Path_198"
               data-name="Path 198"
               d="m 672.825,254.8 a 4.05,4.05 0 1 1 -4.049,-4.047 4.045,4.045 0 0 1 4.049,4.047 z"
               fill="#f7971d" /><path
               id="Path_199"
               data-name="Path 199"
               d="m 664.737,255.068 a 8.436,8.436 0 0 1 0.039,-1.569 c 0.077,-0.369 0.76,0.637 0.774,0.7 0.014,0.063 -0.75,1.636 -0.813,0.869 z"
               fill="#f7971d" /><path
               id="Path_200"
               data-name="Path 200"
               d="m 672.815,255.068 a 7.944,7.944 0 0 0 -0.037,-1.569 c -0.076,-0.369 -0.759,0.641 -0.775,0.7 -0.016,0.059 0.75,1.636 0.812,0.869 z"
               fill="#f7971d" /></g><path
             id="Path_201"
             data-name="Path 201"
             d="m 672.827,254.132 a 4.049,4.049 0 1 1 -4.051,-4.049 4.048,4.048 0 0 1 4.051,4.049 z"
             fill="#ffc52f" /></g><path
           id="Path_202"
           data-name="Path 202"
           d="m 671.767,254.132 a 2.991,2.991 0 1 1 -2.991,-2.988 2.993,2.993 0 0 1 2.991,2.988 z"
           fill="#faac1e" /></g><g
         id="Group_75"
         data-name="Group 75"
         transform="matrix(11.787414,0,0,11.787414,-7405.0507,-2511.2011)"><path
           id="Path_203"
           data-name="Path 203"
           d="m 675.1,240.574 a 7.273,7.273 0 0 0 -0.049,-1.133 c -0.018,-0.135 -0.108,-0.1 -0.219,0 a 2.631,2.631 0 0 0 -4.732,0 c -0.114,-0.108 -0.2,-0.143 -0.225,-0.006 a 6.839,6.839 0 0 0 -0.043,1.133 0.13,0.13 0 0 0 0,0.027 c 0,0.047 0,0.092 0,0.137 0,0.029 0,0.064 0,0.094 v 0.015 a 2.635,2.635 0 0 0 5.248,0 0.02,0.02 0 0 1 0,-0.015 c 0,-0.03 0,-0.063 0,-0.094 0,-0.031 0.006,-0.09 0.006,-0.135 a 0.144,0.144 0 0 1 0.014,-0.023 z"
           fill="#727a86"
           fill-rule="evenodd" /><path
           id="Path_204"
           data-name="Path 204"
           d="m 675.1,239.937 a 2.636,2.636 0 1 1 -2.635,-2.635 2.636,2.636 0 0 1 2.635,2.635 z"
           fill="#5a6271"
           fill-rule="evenodd" /></g><g
         id="Group_76"
         data-name="Group 76"
         transform="matrix(11.787414,0,0,11.787414,-7405.0507,-2511.2011)"><path
           id="Path_205"
           data-name="Path 205"
           d="m 686.472,240.576 a 7.429,7.429 0 0 0 -0.045,-1.135 c -0.022,-0.137 -0.112,-0.1 -0.225,0.006 a 2.629,2.629 0 0 0 -4.73,0 c -0.112,-0.108 -0.2,-0.143 -0.223,-0.006 a 7.059,7.059 0 0 0 -0.045,1.133 v 0.027 c 0,0.049 0.006,0.092 0.006,0.137 0,0.045 0,0.064 0,0.094 a 0.028,0.028 0 0 0 0,0.013 2.633,2.633 0 0 0 5.244,0 v -0.015 c 0,-0.032 0,-0.063 0,-0.094 0,-0.031 0.008,-0.086 0.008,-0.137 a 0.109,0.109 0 0 1 0.01,-0.023 z"
           fill="#727a86"
           fill-rule="evenodd" /><path
           id="Path_206"
           data-name="Path 206"
           d="m 686.474,239.939 a 2.636,2.636 0 1 1 -2.637,-2.637 2.637,2.637 0 0 1 2.637,2.637 z"
           fill="#5a6271"
           fill-rule="evenodd" /></g><g
         id="Group_77"
         data-name="Group 77"
         transform="matrix(11.787414,0,0,11.787414,-7405.0507,-2511.2011)"><path
           id="Path_207"
           data-name="Path 207"
           d="m 680.786,246.259 a 6.606,6.606 0 0 0 -0.045,-1.132 c -0.019,-0.137 -0.109,-0.1 -0.222,0 a 2.632,2.632 0 0 0 -4.731,0 c -0.113,-0.105 -0.2,-0.14 -0.223,-0.006 a 6.957,6.957 0 0 0 -0.044,1.133 0.075,0.075 0 0 0 0,0.03 c 0,0.046 0,0.09 0,0.136 0,0.03 0,0.065 0,0.092 v 0.016 a 2.635,2.635 0 0 0 5.248,0 c 0,-0.006 0,-0.008 0,-0.016 a 0.755,0.755 0 0 1 0,-0.094 c 0,-0.043 0.008,-0.088 0.006,-0.134 z"
           fill="#727a86"
           fill-rule="evenodd" /><path
           id="Path_208"
           data-name="Path 208"
           d="m 680.788,245.623 a 2.635,2.635 0 1 1 -2.635,-2.635 2.635,2.635 0 0 1 2.635,2.635 z"
           fill="#5a6271"
           fill-rule="evenodd" /></g><g
         id="Group_78"
         data-name="Group 78"
         transform="matrix(11.787414,0,0,11.787414,-7405.0507,-2511.2011)"><path
           id="Path_209"
           data-name="Path 209"
           d="m 680.786,234.89 a 6.853,6.853 0 0 0 -0.045,-1.135 c -0.019,-0.132 -0.111,-0.1 -0.222,0.006 a 2.631,2.631 0 0 0 -4.731,0 c -0.113,-0.107 -0.2,-0.142 -0.223,-0.006 a 6.933,6.933 0 0 0 -0.044,1.133 0.136,0.136 0 0 0 0,0.027 c 0,0.049 0,0.092 0.005,0.137 0,0.028 0,0.065 0,0.094 v 0.012 a 2.634,2.634 0 0 0 5.246,0 v -0.014 c 0,-0.031 0,-0.065 0,-0.094 0,-0.047 0.008,-0.092 0.008,-0.137 a 0.12,0.12 0 0 1 0.006,-0.023 z"
           fill="#727a86"
           fill-rule="evenodd" /><path
           id="Path_210"
           data-name="Path 210"
           d="m 680.79,234.255 a 2.635,2.635 0 1 1 -2.637,-2.638 2.638,2.638 0 0 1 2.637,2.638 z"
           fill="#5a6271"
           fill-rule="evenodd" /></g></g></g></svg>
