<?xml version="1.0" encoding="UTF-8" standalone="no"?>
<!-- Created with Inkscape (http://www.inkscape.org/) -->

<svg
   width="1000"
   height="1000"
   viewBox="0 0 1000 1000"
   version="1.1"
   id="svg1"
   xml:space="preserve"
   xmlns="http://www.w3.org/2000/svg"
   xmlns:svg="http://www.w3.org/2000/svg"><defs
     id="defs1" /><g
     id="layer1"><g
       id="g1"
       transform="matrix(1.0010402,0,0,1.0010402,-0.51978181,-139.63259)"><g
         id="Group_79"
         data-name="Group 79"
         transform="matrix(14.720449,0,0,14.720449,-9220.9383,-3030.6871)"><path
           id="Path_182"
           data-name="Path 182"
           d="m 694.3,260.593 c -0.15,-3.263 -2.693,-16.5 -4.315,-22.465 a 12.033,12.033 0 0 0 -0.671,-2.173 0.252,0.252 0 0 1 -0.01,-0.028 l -0.006,-0.008 a 12.119,12.119 0 0 0 -20.072,-3.541 78.292,78.292 0 0 0 -9.565,-0.668 76.549,76.549 0 0 0 -8.3,0.512 12.114,12.114 0 0 0 -19.923,3.7 v 0.006 c 0,0.008 -0.008,0.02 -0.012,0.03 a 12.236,12.236 0 0 0 -0.672,2.173 c -1.621,5.965 -4.162,19.2 -4.312,22.465 -0.006,0.172 0,0.338 0,0.5 a 9.194,9.194 0 0 0 16.74,5.051 l 0.01,-0.012 a 74.139,74.139 0 0 0 4.525,-7.7 5.583,5.583 0 0 0 9.826,-3.635 5.5,5.5 0 0 0 -0.141,-1.224 h 2.258 3.672 a 5.582,5.582 0 0 0 9.686,4.857 74.942,74.942 0 0 0 4.525,7.7 l 0.012,0.016 a 9.195,9.195 0 0 0 16.74,-5.053 c 0.005,-0.165 0.005,-0.331 0.005,-0.503 z"
           fill="#dce2e9" /><g
           id="Group_67"
           data-name="Group 67"
           opacity="0.5"
           style="isolation:isolate;mix-blend-mode:screen"><g
             id="Group_66"
             data-name="Group 66"><path
               id="Path_183"
               data-name="Path 183"
               d="m 642.175,229.64 a 12.364,12.364 0 0 1 8.961,3.828 77.914,77.914 0 0 1 8.5,-0.525 79.278,79.278 0 0 1 9.8,0.685 12.408,12.408 0 0 1 19.686,1.924 12.112,12.112 0 0 0 -19.9,-3.174 78.292,78.292 0 0 0 -9.565,-0.668 76.549,76.549 0 0 0 -8.3,0.512 12.106,12.106 0 0 0 -19.753,3.33 12.4,12.4 0 0 1 10.571,-5.912 z"
               fill="#ffffff" /></g></g><path
           id="Path_184"
           data-name="Path 184"
           d="m 652.3,240.6 a 9.688,9.688 0 1 1 -9.69,-9.685 9.689,9.689 0 0 1 9.69,9.685 z"
           fill="#ffffff"
           opacity="0.5"
           style="isolation:isolate;mix-blend-mode:screen" /><path
           id="Path_185"
           data-name="Path 185"
           d="m 642.61,251.927 a 11.284,11.284 0 0 1 -8.83,-4.238 l -4.726,19.633 a 9.161,9.161 0 0 0 6.576,2.771 c 0.078,0 0.154,0 0.23,0 l 8.684,-18.326 a 11.4,11.4 0 0 1 -1.934,0.16 z"
           fill="#8c93a1"
           opacity="0.2" /><path
           id="Path_186"
           data-name="Path 186"
           d="m 668.431,240.6 a 9.688,9.688 0 1 0 9.687,-9.687 9.69,9.69 0 0 0 -9.687,9.687 z"
           fill="#ebeff2" /><path
           id="Path_187"
           data-name="Path 187"
           d="m 678.118,251.927 a 11.305,11.305 0 0 0 8.832,-4.236 l 4.725,19.631 a 9.161,9.161 0 0 1 -6.576,2.771 c -0.078,0 -0.155,-0.006 -0.231,-0.006 l -8.682,-18.326 a 11.415,11.415 0 0 0 1.932,0.166 z"
           fill="#8c93a1"
           opacity="0.2" /><g
           id="Group_70"
           data-name="Group 70"><g
             id="Group_69"
             data-name="Group 69"><g
               id="Group_68"
               data-name="Group 68"><path
                 id="Path_188"
                 data-name="Path 188"
                 d="M 656,254.8 A 4.049,4.049 0 1 1 651.951,250.753 4.048,4.048 0 0 1 656,254.8 Z"
                 fill="#f7971d" /><path
                 id="Path_189"
                 data-name="Path 189"
                 d="m 647.911,255.068 a 8.264,8.264 0 0 1 0.041,-1.569 c 0.076,-0.369 0.76,0.639 0.774,0.7 0.014,0.061 -0.75,1.636 -0.815,0.869 z"
                 fill="#f7971d" /><path
                 id="Path_190"
                 data-name="Path 190"
                 d="m 655.993,255.068 a 8.189,8.189 0 0 0 -0.041,-1.569 c -0.076,-0.369 -0.758,0.639 -0.773,0.7 -0.015,0.061 0.75,1.636 0.814,0.869 z"
                 fill="#f7971d" /></g><path
               id="Path_191"
               data-name="Path 191"
               d="m 656,254.132 a 4.049,4.049 0 1 1 -4.049,-4.049 4.046,4.046 0 0 1 4.049,4.049 z"
               fill="#ffc52f" /></g><path
             id="Path_192"
             data-name="Path 192"
             d="m 654.942,254.132 a 2.991,2.991 0 1 1 -2.99,-2.988 2.991,2.991 0 0 1 2.99,2.988 z"
             fill="#faac1e" /></g><path
           id="Path_193"
           data-name="Path 193"
           d="m 656.657,245.23 a 2.046,2.046 0 1 1 -2.047,2.045 2.043,2.043 0 0 1 2.047,-2.045 z"
           fill="#8c93a1"
           fill-rule="evenodd" /><path
           id="Path_194"
           data-name="Path 194"
           d="m 664.073,245.23 a 2.047,2.047 0 1 1 -2.045,2.045 2.049,2.049 0 0 1 2.045,-2.045 z"
           fill="#8c93a1"
           fill-rule="evenodd" /><g
           id="Group_71"
           data-name="Group 71"><path
             id="Path_195"
             data-name="Path 195"
             d="m 645.1,245.873 a 1.332,1.332 0 0 1 -1.33,1.33 h -2.47 a 1.327,1.327 0 0 1 -1.328,-1.329 v -10.46 a 1.333,1.333 0 0 1 1.33,-1.331 h 2.465 a 1.328,1.328 0 0 1 1.33,1.331 z"
             fill="#727a86" /><path
             id="Path_196"
             data-name="Path 196"
             d="m 637.306,243.207 a 1.33,1.33 0 0 1 -1.33,-1.33 v -2.467 a 1.326,1.326 0 0 1 1.328,-1.33 h 10.459 a 1.33,1.33 0 0 1 1.33,1.33 v 2.468 a 1.33,1.33 0 0 1 -1.33,1.329 z"
             fill="#727a86" /></g><path
           id="Path_197"
           data-name="Path 197"
           d="M 647.765,237.416 H 645.1 v -2.667 a 1.331,1.331 0 0 0 -1.33,-1.33 h -2.47 a 1.328,1.328 0 0 0 -1.328,1.33 v 2.667 h -2.668 a 1.331,1.331 0 0 0 -1.328,1.332 v 2.466 a 1.327,1.327 0 0 0 1.328,1.329 h 2.668 v 2.667 a 1.329,1.329 0 0 0 1.328,1.329 h 2.467 a 1.328,1.328 0 0 0 1.33,-1.329 v -2.667 h 2.666 a 1.327,1.327 0 0 0 1.33,-1.329 v -2.466 a 1.33,1.33 0 0 0 -1.328,-1.332 z"
           fill="#5a6271" /><g
           id="Group_74"
           data-name="Group 74"><g
             id="Group_73"
             data-name="Group 73"><g
               id="Group_72"
               data-name="Group 72"><path
                 id="Path_198"
                 data-name="Path 198"
                 d="m 672.825,254.8 a 4.05,4.05 0 1 1 -4.049,-4.047 4.045,4.045 0 0 1 4.049,4.047 z"
                 fill="#f7971d" /><path
                 id="Path_199"
                 data-name="Path 199"
                 d="m 664.737,255.068 a 8.436,8.436 0 0 1 0.039,-1.569 c 0.077,-0.369 0.76,0.637 0.774,0.7 0.014,0.063 -0.75,1.636 -0.813,0.869 z"
                 fill="#f7971d" /><path
                 id="Path_200"
                 data-name="Path 200"
                 d="m 672.815,255.068 a 7.944,7.944 0 0 0 -0.037,-1.569 c -0.076,-0.369 -0.759,0.641 -0.775,0.7 -0.016,0.059 0.75,1.636 0.812,0.869 z"
                 fill="#f7971d" /></g><path
               id="Path_201"
               data-name="Path 201"
               d="m 672.827,254.132 a 4.049,4.049 0 1 1 -4.051,-4.049 4.048,4.048 0 0 1 4.051,4.049 z"
               fill="#ffc52f" /></g><path
             id="Path_202"
             data-name="Path 202"
             d="m 671.767,254.132 a 2.991,2.991 0 1 1 -2.991,-2.988 2.993,2.993 0 0 1 2.991,2.988 z"
             fill="#faac1e" /></g><g
           id="Group_75"
           data-name="Group 75"><path
             id="Path_203"
             data-name="Path 203"
             d="m 675.1,240.574 a 7.273,7.273 0 0 0 -0.049,-1.133 c -0.018,-0.135 -0.108,-0.1 -0.219,0 a 2.631,2.631 0 0 0 -4.732,0 c -0.114,-0.108 -0.2,-0.143 -0.225,-0.006 a 6.839,6.839 0 0 0 -0.043,1.133 0.13,0.13 0 0 0 0,0.027 c 0,0.047 0,0.092 0,0.137 0,0.029 0,0.064 0,0.094 v 0.015 a 2.635,2.635 0 0 0 5.248,0 0.02,0.02 0 0 1 0,-0.015 c 0,-0.03 0,-0.063 0,-0.094 0,-0.031 0.006,-0.09 0.006,-0.135 a 0.144,0.144 0 0 1 0.014,-0.023 z"
             fill="#727a86"
             fill-rule="evenodd" /><path
             id="Path_204"
             data-name="Path 204"
             d="m 675.1,239.937 a 2.636,2.636 0 1 1 -2.635,-2.635 2.636,2.636 0 0 1 2.635,2.635 z"
             fill="#5a6271"
             fill-rule="evenodd" /></g><g
           id="Group_76"
           data-name="Group 76"><path
             id="Path_205"
             data-name="Path 205"
             d="m 686.472,240.576 a 7.429,7.429 0 0 0 -0.045,-1.135 c -0.022,-0.137 -0.112,-0.1 -0.225,0.006 a 2.629,2.629 0 0 0 -4.73,0 c -0.112,-0.108 -0.2,-0.143 -0.223,-0.006 a 7.059,7.059 0 0 0 -0.045,1.133 v 0.027 c 0,0.049 0.006,0.092 0.006,0.137 0,0.045 0,0.064 0,0.094 a 0.028,0.028 0 0 0 0,0.013 2.633,2.633 0 0 0 5.244,0 v -0.015 c 0,-0.032 0,-0.063 0,-0.094 0,-0.031 0.008,-0.086 0.008,-0.137 a 0.109,0.109 0 0 1 0.01,-0.023 z"
             fill="#727a86"
             fill-rule="evenodd" /><path
             id="Path_206"
             data-name="Path 206"
             d="m 686.474,239.939 a 2.636,2.636 0 1 1 -2.637,-2.637 2.637,2.637 0 0 1 2.637,2.637 z"
             fill="#5a6271"
             fill-rule="evenodd" /></g><g
           id="Group_77"
           data-name="Group 77"><path
             id="Path_207"
             data-name="Path 207"
             d="m 680.786,246.259 a 6.606,6.606 0 0 0 -0.045,-1.132 c -0.019,-0.137 -0.109,-0.1 -0.222,0 a 2.632,2.632 0 0 0 -4.731,0 c -0.113,-0.105 -0.2,-0.14 -0.223,-0.006 a 6.957,6.957 0 0 0 -0.044,1.133 0.075,0.075 0 0 0 0,0.03 c 0,0.046 0,0.09 0,0.136 0,0.03 0,0.065 0,0.092 v 0.016 a 2.635,2.635 0 0 0 5.248,0 c 0,-0.006 0,-0.008 0,-0.016 a 0.755,0.755 0 0 1 0,-0.094 c 0,-0.043 0.008,-0.088 0.006,-0.134 z"
             fill="#727a86"
             fill-rule="evenodd" /><path
             id="Path_208"
             data-name="Path 208"
             d="m 680.788,245.623 a 2.635,2.635 0 1 1 -2.635,-2.635 2.635,2.635 0 0 1 2.635,2.635 z"
             fill="#5a6271"
             fill-rule="evenodd" /></g><g
           id="Group_78"
           data-name="Group 78"><path
             id="Path_209"
             data-name="Path 209"
             d="m 680.786,234.89 a 6.853,6.853 0 0 0 -0.045,-1.135 c -0.019,-0.132 -0.111,-0.1 -0.222,0.006 a 2.631,2.631 0 0 0 -4.731,0 c -0.113,-0.107 -0.2,-0.142 -0.223,-0.006 a 6.933,6.933 0 0 0 -0.044,1.133 0.136,0.136 0 0 0 0,0.027 c 0,0.049 0,0.092 0.005,0.137 0,0.028 0,0.065 0,0.094 v 0.012 a 2.634,2.634 0 0 0 5.246,0 v -0.014 c 0,-0.031 0,-0.065 0,-0.094 0,-0.047 0.008,-0.092 0.008,-0.137 a 0.12,0.12 0 0 1 0.006,-0.023 z"
             fill="#727a86"
             fill-rule="evenodd" /><path
             id="Path_210"
             data-name="Path 210"
             d="m 680.79,234.255 a 2.635,2.635 0 1 1 -2.637,-2.638 2.638,2.638 0 0 1 2.637,2.638 z"
             fill="#5a6271"
             fill-rule="evenodd" /></g></g></g></g></svg>
