<?xml version="1.0" encoding="UTF-8" standalone="no"?>
<!-- Created with Inkscape (http://www.inkscape.org/) -->

<svg
   width="1000"
   height="1000"
   viewBox="0 0 1000 1000"
   version="1.1"
   id="svg1"
   xml:space="preserve"
   xmlns="http://www.w3.org/2000/svg"
   xmlns:svg="http://www.w3.org/2000/svg"><defs
     id="defs1" /><g
     id="layer1"><path
       id="Path_333"
       data-name="Path 333"
       d="m 999.99403,852.93101 c 0,77.26395 -58.81771,139.83599 -131.40127,139.83599 H 131.40659 C 58.823025,992.767 0.00531232,930.19496 0.00531232,852.93101 V 603.48134 c 0,-77.16383 58.81771268,-139.73587 131.40127768,-139.73587 h 737.17365 c 72.58357,0 131.40128,62.57204 131.40128,139.73587 z"
       fill="#f4f4f4"
       style="stroke-width:12.5144" /><g
       id="Group_130"
       data-name="Group 130"
       transform="matrix(12.514407,0,0,12.514407,-5801.5236,-19640.324)"><path
         id="Path_334"
         data-name="Path 334"
         d="m 522.584,1634.075 a 4.966,4.966 0 1 1 -4.97,-4.965 4.971,4.971 0 0 1 4.97,4.965 z"
         fill="#f44b41" /><path
         id="Path_335"
         data-name="Path 335"
         d="m 535.524,1621.14 a 4.97,4.97 0 1 1 -4.967,-4.965 4.97,4.97 0 0 1 4.967,4.965 z"
         fill="#27b7ff" /></g><path
       id="Path_336"
       data-name="Path 336"
       d="m 341.44839,682.08433 h -45.20204 v -45.12695 a 46.140619,46.140619 0 1 0 -92.28123,0 v 45.12695 h -45.05187 a 46.153133,46.153133 0 1 0 0,92.29375 h 45.05187 v 45.1645 a 46.140619,46.140619 0 1 0 92.28123,0 v -45.11444 h 45.20204 a 46.153133,46.153133 0 0 0 0,-92.29375 z"
       fill="#163844"
       style="fill:#464646;fill-opacity:1;stroke-width:12.5144" /><g
       id="Group_131"
       data-name="Group 131"
       transform="matrix(12.514407,0,0,12.514407,-5801.5236,-19640.324)"
       style="fill:#f4f4f4;fill-opacity:1"><path
         id="Path_337"
         data-name="Path 337"
         d="m 523.759,1569.995 c -0.069,5.93 -1.226,9.787 -3.148,12.432 -1.965,2.721 -4.9,4.474 -9.211,5.8 -13.365,4.25 -17.609,14.043 -18.82,18.226 h 5.245 c 1.426,-3.758 5.107,-10.306 15.054,-13.478 4.831,-1.469 8.956,-3.75 11.758,-7.629 2.734,-3.779 4.026,-8.789 4.092,-15.346 z"
         fill="#163844"
         style="fill:#f4f4f4;fill-opacity:1" /></g></g></svg>
